<svg width="15" height="13" viewBox="0 0 15 13" fill="none" xmlns="http://www.w3.org/2000/svg">
<path d="M7.50017 2.94043L2.1505 7.35068C2.1505 7.3569 2.14893 7.36606 2.14581 7.37854C2.14274 7.39092 2.14111 7.39992 2.14111 7.40631V11.8722C2.14111 12.0334 2.20006 12.1731 2.31793 12.2908C2.43577 12.4085 2.57531 12.4678 2.73659 12.4678H6.30916V8.89501H8.69122V12.4679H12.2638C12.425 12.4679 12.5647 12.4088 12.6824 12.2908C12.8003 12.1733 12.8594 12.0334 12.8594 11.8722V7.40631C12.8594 7.38154 12.856 7.36283 12.85 7.35068L7.50017 2.94043Z" fill="#DE4B2A"/>
<path d="M14.8965 6.34632L12.8591 4.653V0.856964C12.8591 0.770183 12.8312 0.698816 12.7752 0.642961C12.7197 0.58717 12.6483 0.559275 12.5613 0.559275H10.775C10.6881 0.559275 10.6168 0.58717 10.5609 0.642961C10.5051 0.698816 10.4773 0.770215 10.4773 0.856964V2.67122L8.20717 0.773148C8.00891 0.611872 7.77317 0.53125 7.50022 0.53125C7.22729 0.53125 6.99159 0.611872 6.79313 0.773148L0.103386 6.34632C0.0413718 6.39585 0.00738296 6.46253 0.00106097 6.54628C-0.00522844 6.62996 0.0164423 6.70306 0.0661384 6.76504L0.642971 7.45355C0.692667 7.50934 0.757712 7.54346 0.838367 7.55594C0.912829 7.5622 0.987292 7.54043 1.06175 7.49083L7.50002 2.12228L13.9383 7.4908C13.9881 7.53408 14.0531 7.55568 14.1337 7.55568H14.1617C14.2422 7.54343 14.3071 7.50908 14.3571 7.45342L14.934 6.76501C14.9836 6.70289 15.0053 6.62993 14.9989 6.54615C14.9925 6.46263 14.9584 6.39595 14.8965 6.34632Z" fill="#DE4B2A"/>
</svg>
