<svg width="24" height="24" viewBox="0 0 24 24" fill="none" xmlns="http://www.w3.org/2000/svg">
<g clip-path="url(#clip0)">
<path d="M23.949 6.15693C23.8013 5.67189 23.2752 5.41224 22.8006 5.59059C22.6411 5.65065 22.467 5.71601 22.2843 5.78431C21.7911 5.96906 21.34 6.2461 20.9514 6.60151C19.0574 8.33551 16.4655 10.1931 13.3493 11.1421C6.60955 13.1949 3.026 7.43812 2.24267 5.9828L1.44873 7.65253C1.87793 8.19818 2.22711 8.81964 2.27453 9.43359C2.50909 12.4768 5.96062 18.3277 14.7248 15.6584C18.173 14.6081 22.5168 12.3094 23.9617 6.63374C24.0014 6.47755 23.9959 6.3111 23.949 6.15693Z" fill="#FFE17D"/>
<path d="M23.949 6.15735C23.8736 5.90961 23.6987 5.72192 23.483 5.62012C22.7347 8.04077 21.4367 9.80224 19.9282 11.0959C17.7987 12.9223 15.0549 13.8818 12.2501 13.9393C12.1466 13.9415 12.0436 13.9426 11.9405 13.9426C10.4546 13.9426 5.90276 13.4967 3.86553 8.30462C3.03222 7.35669 2.4928 6.44812 2.24267 5.9834L1.44873 7.65313C1.87793 8.19879 2.22711 8.82006 2.27453 9.43401C2.50909 12.4772 5.96062 18.3282 14.7248 15.6589C15.9096 15.298 17.1987 14.7849 18.44 14.0409C18.4405 14.0413 18.4412 14.0415 18.4418 14.0417C20.8148 12.6243 23.0134 10.3594 23.9617 6.63415C24.0014 6.47796 23.9959 6.31152 23.949 6.15735Z" fill="#FFD164"/>
<path d="M22.8002 5.59059C22.7133 5.62336 22.6213 5.65779 22.5269 5.69331L23.8579 7.01625C23.8937 6.89027 23.9283 6.76319 23.9613 6.63374C24.001 6.47755 23.9955 6.31111 23.9487 6.15693C23.8009 5.67189 23.2748 5.41224 22.8002 5.59059Z" fill="#C48D66"/>
<path d="M23.0286 12.0602C22.8519 12.0715 22.6587 12.0838 22.4562 12.0964C21.9094 12.1308 21.3764 12.2696 20.882 12.5058C18.4716 13.6572 15.3294 14.7203 11.9403 14.7203C4.61095 14.7203 2.78942 7.90514 2.45104 6.21948C2.40032 5.96679 2.29028 5.73041 2.12676 5.53119L1.32019 4.54846C1.17425 4.37067 0.906919 4.35767 0.744322 4.52027L0.114624 5.14996C-0.0183104 5.2829 -0.0382689 5.48999 0.0686644 5.64453C0.546935 6.33447 1.75048 8.25158 1.43683 9.66295C0.747984 12.7627 2.40948 19.6316 11.9403 19.6316C15.6903 19.6316 20.7099 18.6606 23.8679 13.4501C23.9549 13.3067 23.9999 13.1394 23.9999 12.9718C23.9999 12.4443 23.555 12.0265 23.0286 12.0602Z" fill="#FFE17D"/>
<path d="M23.699 12.2958C20.5232 16.9827 15.7427 17.8808 12.1346 17.8808C3.9136 17.8808 1.53927 12.7905 1.47775 9.39648C1.46933 9.48676 1.45615 9.57574 1.43674 9.66272C0.747895 12.7625 2.40939 19.6313 11.9402 19.6313C15.6902 19.6313 20.7098 18.6603 23.8678 13.4499C23.9548 13.3065 23.9998 13.1392 23.9998 12.9714C23.9998 12.7021 23.8828 12.4624 23.699 12.2958Z" fill="#FFD164"/>
<path d="M2.30511 5.80752C2.25513 5.71011 2.1969 5.61655 2.12677 5.53104L1.32019 4.54849C1.17426 4.3707 0.906921 4.3577 0.744324 4.52011L0.114624 5.14999C-0.0183105 5.28293 -0.038269 5.49002 0.0686646 5.64456C0.26532 5.92819 0.583923 6.42056 0.869751 6.99863L2.30511 5.80752Z" fill="#D29B6E"/>
<path d="M23.0286 12.0605C22.9323 12.0667 22.8305 12.0731 22.7256 12.0797L23.6494 13.7994C23.7231 13.685 23.796 13.5693 23.8682 13.4504C23.955 13.3071 24 13.1397 24 12.9722C24 12.4447 23.5551 12.0268 23.0286 12.0605Z" fill="#C48D66"/>
</g>
<defs>
<clipPath id="clip0">
<rect width="24" height="24" fill="white"/>
</clipPath>
</defs>
</svg>
