<svg width="24" height="16" viewBox="0 0 24 16" fill="none" xmlns="http://www.w3.org/2000/svg">
<path d="M23.0286 8.06016C22.8519 8.07152 22.6587 8.08378 22.4562 8.09642C21.9094 8.13084 21.3764 8.26964 20.882 8.50584C18.4716 9.65721 15.3294 10.7203 11.9403 10.7203C4.61095 10.7203 2.78942 3.90514 2.45104 2.21948C2.40032 1.96679 2.29028 1.73041 2.12676 1.53119L1.32019 0.548463C1.17425 0.370668 0.906919 0.357668 0.744322 0.520265L0.114624 1.14996C-0.0183104 1.2829 -0.0382689 1.48999 0.0686644 1.64453C0.546935 2.33447 1.75048 4.25158 1.43683 5.66295C0.747984 8.76274 2.40948 15.6316 11.9403 15.6316C15.6903 15.6316 20.7099 14.6606 23.8679 9.45011C23.9549 9.30674 23.9999 9.13939 23.9999 8.97184C23.9999 8.44432 23.555 8.02647 23.0286 8.06016Z" fill="#FFE17D"/>
</svg>
