<svg width="24" height="24" viewBox="0 0 24 24" fill="none" xmlns="http://www.w3.org/2000/svg">
<path d="M16.6154 8.30769C16.6154 3.71947 12.8959 0 8.30769 0C3.71947 0 0 3.71947 0 8.30769C0 10.0441 0.533064 11.6559 1.44401 12.989L0.352826 16.2626L3.62648 15.1714C4.95951 16.0823 6.57125 16.6154 8.30769 16.6154C12.8959 16.6154 16.6154 12.8959 16.6154 8.30769Z" fill="white"/>
<path d="M24.0001 15.6927C24.0001 11.9723 21.5542 8.82373 18.1829 7.76562C18.1926 7.9457 18.1979 8.12652 18.1979 8.30808C18.1979 9.64253 17.9362 10.9379 17.42 12.1582C16.9218 13.3361 16.2089 14.3936 15.3011 15.3014C14.3934 16.2092 13.3358 16.9221 12.1579 17.4203C10.9376 17.9365 9.64225 18.1982 8.3078 18.1982C8.12619 18.1982 7.94537 18.1922 7.76514 18.1824C8.82298 21.5541 11.9717 24.0004 15.6924 24.0004C17.4289 24.0004 19.0406 23.4673 20.3737 22.5564L23.6473 23.6476L22.5561 20.374C23.467 19.0409 24.0001 17.4291 24.0001 15.6927Z" fill="white"/>
</svg>
