<svg width="24" height="28" viewBox="0 0 24 28" fill="none" xmlns="http://www.w3.org/2000/svg">
<path fill-rule="evenodd" clip-rule="evenodd" d="M20.057 11.0802C20.2294 11.9571 20.1432 12.8597 19.8416 13.6784C19.5184 14.4733 19.066 15.2101 18.2258 15.6755C17.9027 13.9261 17.7949 12.7499 17.558 11.5456C17.4502 10.9725 17.3425 10.3693 17.1702 9.74023C17.0409 9.08531 16.8039 8.40023 16.6531 7.49756C18.4197 7.77116 19.7769 9.33091 20.057 11.0802ZM19.2814 20.9274C24.4518 17.125 25.529 9.84978 21.7373 4.70736C17.9026 -0.460916 10.664 -1.52732 5.49358 2.2751C1.83119 4.98096 -0.150804 9.52232 0.969456 13.6522C2.17589 18.1095 0 27.5994 0 27.5994C10.5563 27.8192 19.2814 20.9274 19.2814 20.9274Z" fill="#DE4B2A"/>
</svg>
