<svg width="14" height="18" viewBox="0 0 14 18" fill="none" xmlns="http://www.w3.org/2000/svg">
<path fill-rule="evenodd" clip-rule="evenodd" d="M12.2843 3.2907C12.3201 3.47268 12.3022 3.66003 12.2396 3.82994C12.1726 3.99493 12.0787 4.14785 11.9043 4.24443C11.8372 3.88136 11.8149 3.63723 11.7657 3.38728C11.7433 3.26834 11.721 3.14315 11.6852 3.01258C11.6584 2.87666 11.6092 2.73447 11.5779 2.54712C11.9445 2.6039 12.2262 2.92763 12.2843 3.2907ZM12.1234 5.33468C13.1965 4.54549 13.4201 3.03552 12.6331 1.96822C11.8373 0.895548 10.3349 0.674218 9.26177 1.46341C8.50164 2.025 8.09028 2.96756 8.32279 3.82471C8.57319 4.74983 8.12158 6.71945 8.12158 6.71945C10.3125 6.76506 12.1234 5.33468 12.1234 5.33468Z" fill="black" fill-opacity="0.1"/>
<path fill-rule="evenodd" clip-rule="evenodd" d="M1.71565 7.29206C1.67988 7.11008 1.69777 6.92273 1.76036 6.75282C1.82743 6.58783 1.92133 6.43491 2.09571 6.33833C2.16278 6.7014 2.18514 6.94554 2.23432 7.19548C2.25668 7.31442 2.27904 7.43962 2.31481 7.57018C2.34164 7.70611 2.39082 7.8483 2.42212 8.03564C2.05547 7.97886 1.77378 7.65513 1.71565 7.29206ZM1.87658 5.24833C0.803465 6.03752 0.579899 7.54748 1.36685 8.61479C2.16275 9.68746 3.66511 9.90879 4.73823 9.1196C5.49836 8.558 5.90972 7.61545 5.67721 6.7583C5.42681 5.83318 5.87842 3.86356 5.87842 3.86356C3.68747 3.81795 1.87658 5.24833 1.87658 5.24833Z" fill="black" fill-opacity="0.1"/>
<path fill-rule="evenodd" clip-rule="evenodd" d="M12.2843 11.7448C12.3201 11.9268 12.3022 12.1141 12.2396 12.284C12.1726 12.449 12.0787 12.602 11.9043 12.6985C11.8372 12.3355 11.8149 12.0913 11.7657 11.8414C11.7433 11.7224 11.721 11.5972 11.6852 11.4667C11.6584 11.3308 11.6092 11.1886 11.5779 11.0012C11.9445 11.058 12.2262 11.3817 12.2843 11.7448ZM12.1234 13.7888C13.1965 12.9996 13.4201 11.4896 12.6331 10.4223C11.8373 9.34965 10.3349 9.12832 9.26177 9.91751C8.50164 10.4791 8.09028 11.4217 8.32279 12.2788C8.57319 13.2039 8.12158 15.1735 8.12158 15.1735C10.3125 15.2192 12.1234 13.7888 12.1234 13.7888Z" fill="black" fill-opacity="0.1"/>
<path fill-rule="evenodd" clip-rule="evenodd" d="M1.71565 15.501C1.67988 15.3191 1.69777 15.1317 1.76036 14.9618C1.82743 14.7968 1.92133 14.6439 2.09571 14.5473C2.16278 14.9104 2.18514 15.1545 2.23432 15.4045C2.25668 15.5234 2.27904 15.6486 2.31481 15.7792C2.34164 15.9151 2.39082 16.0573 2.42212 16.2446C2.05547 16.1878 1.77378 15.8641 1.71565 15.501ZM1.87658 13.4573C0.803465 14.2465 0.579899 15.7565 1.36685 16.8238C2.16275 17.8964 3.66511 18.1178 4.73823 17.3286C5.49836 16.767 5.90972 15.8244 5.67721 14.9673C5.42681 14.0422 5.87842 12.0725 5.87842 12.0725C3.68747 12.0269 1.87658 13.4573 1.87658 13.4573Z" fill="black" fill-opacity="0.1"/>
</svg>
