<svg width="20" height="9" viewBox="0 0 20 9" fill="none" xmlns="http://www.w3.org/2000/svg">
<path fill-rule="evenodd" clip-rule="evenodd" d="M11.3869 2.29973C11.4226 2.48172 11.4047 2.66906 11.3421 2.83898C11.2751 3.00397 11.1812 3.15689 11.0068 3.25347C10.9397 2.8904 10.9174 2.64626 10.8682 2.39631C10.8458 2.27738 10.8235 2.15218 10.7877 2.02162C10.7609 1.88569 10.7117 1.7435 10.6804 1.55615C11.047 1.61294 11.3287 1.93666 11.3869 2.29973ZM11.226 4.34347C12.2991 3.55428 12.5226 2.04431 11.7357 0.977008C10.9398 -0.0956626 9.43743 -0.316993 8.36431 0.472196C7.60418 1.03379 7.19282 1.97635 7.42533 2.8335C7.67572 3.75862 7.22412 5.72824 7.22412 5.72824C9.41507 5.77384 11.226 4.34347 11.226 4.34347Z" fill="black" fill-opacity="0.1"/>
<path fill-rule="evenodd" clip-rule="evenodd" d="M0.818174 6.3011C0.782403 6.11911 0.800289 5.93176 0.862887 5.76185C0.929957 5.59686 1.02386 5.44394 1.19824 5.34736C1.26531 5.71043 1.28766 5.95457 1.33685 6.20452C1.3592 6.32345 1.38156 6.44865 1.41733 6.57921C1.44416 6.71514 1.49334 6.85733 1.52464 7.04468C1.15799 6.98789 0.876301 6.66417 0.818174 6.3011ZM0.979122 4.25712C-0.0939957 5.04631 -0.317562 6.55627 0.469391 7.62358C1.26529 8.69625 2.76765 8.91758 3.84077 8.12839C4.60089 7.56679 5.01226 6.62424 4.77975 5.76708C4.52935 4.84197 4.98096 2.87235 4.98096 2.87235C2.79001 2.82674 0.979122 4.25712 0.979122 4.25712Z" fill="black" fill-opacity="0.1"/>
<path fill-rule="evenodd" clip-rule="evenodd" d="M15.2669 6.3011C15.2311 6.11911 15.249 5.93176 15.3116 5.76185C15.3787 5.59686 15.4726 5.44394 15.647 5.34736C15.7141 5.71043 15.7364 5.95457 15.7856 6.20452C15.8079 6.32345 15.8303 6.44865 15.8661 6.57921C15.8929 6.71514 15.9421 6.85733 15.9734 7.04468C15.6067 6.98789 15.325 6.66417 15.2669 6.3011ZM15.4279 4.25712C14.3547 5.04631 14.1312 6.55627 14.9181 7.62358C15.714 8.69625 17.2164 8.91758 18.2895 8.12839C19.0496 7.56679 19.461 6.62424 19.2285 5.76708C18.9781 4.84197 19.4297 2.87235 19.4297 2.87235C17.2387 2.82674 15.4279 4.25712 15.4279 4.25712Z" fill="black" fill-opacity="0.1"/>
</svg>
