<svg width="15" height="11" viewBox="0 0 15 11" fill="none" xmlns="http://www.w3.org/2000/svg">
<path d="M1.18602 0.870311L6.58897 5.15003C6.83398 5.34387 7.17159 5.43003 7.49952 5.41387C7.8269 5.43003 8.16452 5.34441 8.40952 5.15003L13.8125 0.870311C14.2454 0.529463 14.1474 0.25 13.5982 0.25H7.50006H1.40195C0.852174 0.25 0.754173 0.529463 1.18602 0.870311Z" fill="#DE4B2A"/>
<path d="M14.2031 1.99934L8.29881 6.48206C8.07804 6.6479 7.78889 6.72867 7.50081 6.7249C7.21219 6.72867 6.92304 6.64736 6.70226 6.48206L0.796927 1.99934C0.358617 1.66711 0 1.84534 0 2.39511V9.74999C0 10.2998 0.450156 10.7499 0.999928 10.7499H7.49973H14.0001C14.5498 10.7499 15 10.2998 15 9.74999V2.39511C15 1.84534 14.6414 1.66711 14.2031 1.99934Z" fill="#DE4B2A"/>
</svg>
