<svg width="26" height="26" viewBox="0 0 26 26" fill="none" xmlns="http://www.w3.org/2000/svg">
<g clip-path="url(#clip0)">
<path d="M16.5197 1.66191C12.1521 -2.31569 9.80945 2.09593 9.80945 2.09593L9.65234 12.5801H16.7816L16.5197 1.66191Z" fill="#B4E6A0"/>
<path d="M8.39415 19.2905C8.39415 13.8124 4.51018 12.6572 3.78119 10.9292C3.07343 9.25166 4.76091 8.82894 4.33165 7.57429C3.65007 5.58231 4.3622 3.55959 6.74733 3.80438H8.81369V19.2905H8.39415Z" fill="#78C3A5"/>
<path d="M7.55566 15.4388C8.05316 16.4296 8.39435 17.6696 8.39435 19.2902H8.81369V9.64453H8.39435C7.93117 9.64453 7.55566 10.02 7.55566 10.4834V15.4388Z" fill="#64AF96"/>
<path d="M17.6205 19.2905C17.6205 13.8124 21.5047 12.6572 22.2337 10.9292C22.9414 9.25166 21.2539 8.82894 21.6832 7.57429C22.3648 5.58231 21.6527 3.55959 19.2673 3.80438H17.2012V19.2905H17.6205Z" fill="#B4E6A0"/>
<path d="M13.0072 26.0004C10.4594 26.0004 8.39404 23.935 8.39404 21.3875V12.1611H17.6204V21.3875C17.6202 23.935 15.555 26.0004 13.0072 26.0004Z" fill="#FFF6D8"/>
<path d="M13.8462 24.322C12.225 24.322 10.9106 23.0079 10.9106 21.3864V13.8379H16.7818V21.3866C16.7818 23.0079 15.4677 24.322 13.8462 24.322Z" fill="#FFEDB1"/>
<path d="M9.23293 21.3875V12.1611H8.39404V21.3875C8.39404 23.935 10.4594 26.0004 13.0072 26.0004C13.1488 26.0004 13.2883 25.9917 13.4265 25.9792C11.0755 25.7671 9.23293 23.7936 9.23293 21.3875Z" fill="#FFEDB1"/>
<path d="M13.0074 24.3223C11.3861 24.3223 10.0718 23.0081 10.0718 21.3867V8.80566H10.4911C13.5021 8.80566 15.943 11.2465 15.943 14.2575V21.3869C15.943 23.0081 14.6286 24.3223 13.0074 24.3223Z" fill="#D2EBB9"/>
<path d="M12.1687 9.22501L10.0718 8.80566V20.9674C10.9981 20.9674 11.7491 20.2164 11.7491 19.29V19.0278C11.7491 15.1486 13.6364 12.7724 12.1687 9.22501Z" fill="#B4E6A0"/>
<path d="M11.0418 5.53843C11.6819 3.42605 10.1922 0.929639 8.39459 0.840375C8.11986 0.826688 7.83818 0.869138 7.55571 0.977842C6.19275 1.50212 6.1142 3.17949 6.63827 3.91343C7.87627 5.64634 8.39439 4.93561 8.39439 8.70988V16.774C8.39439 17.7003 9.1456 18.4514 10.072 18.4514V14.3452C10.072 12.0386 12.1689 11.7417 12.1689 9.36528C12.1689 7.26837 10.5175 7.26837 11.0418 5.53843Z" fill="#96D7A5"/>
<path d="M14.7897 11.3223C14.7897 11.3223 14.6463 14.0621 13.8461 16.8782C12.9024 20.1991 13.0074 22.5711 13.0074 24.3227C14.6286 24.3227 15.943 23.0085 15.943 21.3871V11.3223H14.6849" fill="#B4E6A0"/>
<path d="M8.73516 13.8721C8.57706 13.8721 8.42551 13.7824 8.3547 13.6297L5.62917 7.77693C5.53138 7.56726 5.62223 7.31732 5.8323 7.21993C6.04336 7.12213 6.2923 7.21338 6.3893 7.42305L9.11483 13.2758C9.21282 13.4855 9.12177 13.7354 8.91171 13.8328C8.85438 13.8594 8.79408 13.8721 8.73516 13.8721Z" fill="#96D7A5"/>
<path d="M8.81369 12.6297L7.64175 10.1133C7.5872 10.2246 7.55566 10.3513 7.55566 10.4836V11.9142L8.35468 13.6301C8.42549 13.7828 8.57704 13.8725 8.73514 13.8725C8.76132 13.8725 8.78731 13.8602 8.81369 13.855V12.6297Z" fill="#78C3A5"/>
<path d="M17.2886 13.8721C17.4467 13.8721 17.5983 13.7824 17.6691 13.6297L20.3946 7.77693C20.4924 7.56726 20.4016 7.31732 20.1915 7.21993C19.9804 7.12213 19.7315 7.21338 19.6345 7.42305L16.909 13.2758C16.8112 13.4855 16.902 13.7354 17.1121 13.8328C17.1694 13.8594 17.2297 13.8721 17.2886 13.8721Z" fill="#96D7A5"/>
<path d="M15.524 7.54828C15.3432 7.54828 15.177 7.43105 15.1221 7.24974C14.9586 6.70543 14.6416 6.43546 14.203 6.06154C13.604 5.55135 12.8585 4.91619 12.2503 3.36796C12.1656 3.15273 12.2718 2.90934 12.4876 2.82464C12.7006 2.74113 12.9462 2.84547 13.0311 3.06168C13.5621 4.41413 14.1917 4.95011 14.747 5.42361C15.2324 5.8368 15.6906 6.22758 15.9256 7.00814C15.9921 7.23011 15.8663 7.46398 15.6448 7.53063C15.6045 7.54253 15.5636 7.54828 15.524 7.54828Z" fill="#96D7A5"/>
<path d="M14.9733 5.53843C14.3332 3.42605 15.8229 0.929639 17.6205 0.840375C17.895 0.826688 18.1769 0.869138 18.4594 0.977842C19.8223 1.50212 19.9009 3.17949 19.3766 3.91343C18.1388 5.64634 17.6205 4.93561 17.6205 8.70988V16.774C17.6205 17.7003 16.8695 18.4514 15.9431 18.4514V14.3452C15.9431 12.0386 13.8462 11.7417 13.8462 9.36528C13.8462 7.26837 15.4976 7.26837 14.9733 5.53843Z" fill="#96D7A5"/>
<path d="M8.39404 9.64453V16.7739C8.39404 17.3932 8.73364 17.9364 9.23293 18.227V10.4834C9.23293 10.02 8.85742 9.64453 8.39404 9.64453Z" fill="#78C3A5"/>
<path d="M15.9428 14.2578C15.4796 14.2578 15.1041 14.6333 15.1041 15.0965V21.3872C15.1041 22.7169 14.2565 23.982 13.0068 24.3228H13.0072C14.6285 24.3228 15.9428 23.0085 15.9428 21.3872V14.2578Z" fill="#96D7A5"/>
<path d="M15.9431 14.3455V18.4516C16.2502 18.4516 16.5342 18.3713 16.7818 18.2271V15.0967C16.7818 14.6335 16.4063 14.258 15.9431 14.258L15.9419 14.2578L15.9431 14.3455Z" fill="#78C3A5"/>
</g>
<defs>
<clipPath id="clip0">
<rect width="26" height="26" fill="white"/>
</clipPath>
</defs>
</svg>
