<svg width="22" height="18" viewBox="0 0 22 18" fill="none" xmlns="http://www.w3.org/2000/svg">
<path d="M0.951773 8.04883C0.42702 8.04883 0 8.47585 0 9.00066C0 9.52479 0.426684 9.95181 0.951773 9.95181H4.95853V8.04883H0.951773Z" fill="white"/>
<path d="M18.8287 0.479492H8.13077C6.38162 0.479492 4.95855 1.90188 4.95855 3.65071V3.74995V8.04812H13.5308L11.6976 6.21468C11.3271 5.84353 11.3271 5.23982 11.6976 4.86883C11.8773 4.68912 12.1158 4.59004 12.3699 4.59004C12.625 4.59004 12.8636 4.68917 13.0436 4.86883L16.5015 8.32691C16.5883 8.41338 16.6569 8.51588 16.706 8.63194C16.7569 8.7569 16.7804 8.87756 16.7804 9.00023C16.7804 9.12256 16.7572 9.24338 16.7097 9.35905C16.659 9.48127 16.5903 9.58321 16.5041 9.67102L13.0435 13.1309C12.8628 13.3106 12.6236 13.4092 12.3699 13.4092C12.1161 13.4092 11.8762 13.3106 11.6972 13.1309C11.3267 12.7591 11.3267 12.1554 11.6972 11.7846L13.5308 9.95133H4.9585V10.9921V12.9031V14.3491C4.9585 16.0972 6.38162 17.5197 8.13072 17.5197H18.8287C20.5778 17.5197 21.9999 16.0972 21.9999 14.3491V3.6511C22 1.90188 20.5779 0.479492 18.8287 0.479492Z" fill="white"/>
</svg>
