<svg width="22" height="22" viewBox="0 0 22 22" fill="none" xmlns="http://www.w3.org/2000/svg">
<g clip-path="url(#clip0)">
<path d="M10.5018 2.79529C7.69825 2.74997 3.69309 3.83711 3.33709 8.54773C2.98109 13.2583 6.04832 15.6596 7.6536 18.739C8.81074 20.9586 9.70083 22.0003 11.4808 22.0003C13.5724 22.0003 17.5117 17.7373 17.2658 11.1295C17.0435 5.15051 13.7055 2.84698 10.5018 2.79529Z" fill="#FFC369"/>
<path d="M10.8491 2.80957C12.1291 3.87875 12.9402 5.431 13.7849 7.05492C14.7029 8.81982 15.6536 10.6398 17.2729 12.0428C17.2792 11.7439 17.2773 11.4387 17.2657 11.1294C17.0514 5.36671 13.9422 3.0182 10.8491 2.80957Z" fill="#FFAA5F"/>
<path d="M10.6257 18.5765C8.59036 14.7319 4.55264 12.2876 4.3999 7.33308C4.35004 5.71823 4.76899 4.9082 4.76899 4.9082C3.99891 5.76926 3.45777 6.9509 3.33709 8.54729C2.98109 13.2579 6.04832 15.6591 7.65361 18.7386C8.81074 20.9582 9.70084 21.9999 11.4809 21.9999C11.934 21.9999 12.4735 21.8001 13.0388 21.4194C12.191 21.0626 11.3914 20.0228 10.6257 18.5765Z" fill="#FFAA5F"/>
<path d="M18.686 11.7375C18.6904 9.67301 18.1731 1.70029 9.94336 1.39648C14.1686 3.42458 14.3039 9.05231 18.2672 11.9443C18.4411 12.0712 18.6855 11.9527 18.686 11.7375Z" fill="#96CD82"/>
<path d="M18.2672 11.9443C18.3681 12.0178 18.492 12.0093 18.5789 11.9468C18.0087 10.3237 14.8638 2.02625 9.94336 1.39648C14.1686 3.42458 14.3037 9.05231 18.2672 11.9443Z" fill="#7DBE81"/>
<path d="M9.93102 2.80182C10.1256 2.79427 10.3164 2.79192 10.5019 2.79494C10.545 2.79561 10.5881 2.7983 10.6313 2.79981C10.5448 1.30362 9.92448 0.221683 9.89628 0.173007C9.79876 0.00667103 9.58559 -0.0493898 9.41909 0.0474578C9.25275 0.144137 9.19619 0.357638 9.2927 0.524478C9.29857 0.534885 9.84492 1.49698 9.93102 2.80182Z" fill="#B67F5F"/>
<path d="M9.89635 0.173169C9.79866 0.0066649 9.58566 -0.0493959 9.41916 0.0474516C9.25283 0.144131 9.19609 0.3578 9.29277 0.524472C9.29479 0.527997 9.3579 0.63995 9.444 0.835324C9.50023 0.96272 9.62628 1.04748 9.7656 1.04748C10.0192 1.04748 10.1874 0.784298 10.0845 0.552334C9.98296 0.323895 9.90575 0.18945 9.89635 0.173169Z" fill="#A06E50"/>
</g>
<defs>
<clipPath id="clip0">
<rect width="22" height="22" fill="white"/>
</clipPath>
</defs>
</svg>
