<svg width="27" height="25" viewBox="0 0 27 25" fill="none" xmlns="http://www.w3.org/2000/svg">
<path d="M26.8626 0.106021C26.7424 0.000603756 26.5713 -0.0238536 26.4264 0.043384L0.23354 12.2133C0.0925263 12.2789 0.00171917 12.4196 2.41054e-05 12.575C-0.00167096 12.7305 0.0861497 12.8731 0.225791 12.9416L7.63832 16.5794C7.77425 16.6462 7.93633 16.6311 8.05773 16.5403L15.2648 11.1537L9.60694 16.9735C9.52622 17.0565 9.48506 17.1703 9.49393 17.2857L10.0573 24.622C10.0698 24.7846 10.1787 24.9236 10.3336 24.9745C10.375 24.9881 10.4176 24.9947 10.4596 24.9947C10.575 24.9947 10.6872 24.9452 10.7652 24.8548L14.6996 20.2957L19.5632 22.6196C19.6688 22.67 19.791 22.6721 19.8983 22.6255C20.0055 22.5787 20.0872 22.4878 20.1222 22.3763L26.9815 0.530352C27.0294 0.377796 26.9827 0.211438 26.8626 0.106021Z" fill="white"/>
</svg>
