<svg width="16" height="14" viewBox="0 0 16 14" fill="none" xmlns="http://www.w3.org/2000/svg">
<path d="M15.9194 5.07436C15.8995 5.17487 15.8986 5.27861 15.8597 5.37356C15.629 5.93029 15.1978 6.39113 14.8796 6.90432C14.4697 7.55923 10.9872 6.14797 11.436 5.27352C11.6051 4.95023 12.2642 4.05725 12.3142 3.6983C12.3596 3.37825 11.9353 3.12722 11.5435 3.0948C10.5101 3.01143 9.18874 3.08692 8.09151 3.09387V3.0948C8.06233 3.0948 8.02991 3.0948 8.00026 3.09433C7.97016 3.0948 7.93774 3.0948 7.90902 3.0948V3.09387C6.81132 3.08692 5.49084 3.01143 4.45706 3.0948C4.06522 3.12722 3.64096 3.37825 3.68635 3.69876C3.73591 4.05771 4.39546 4.95069 4.56451 5.27398C5.01424 6.14844 1.53032 7.5597 1.12042 6.90478C0.801768 6.39206 0.371489 5.93075 0.140833 5.37403C0.101927 5.27908 0.100538 5.17486 0.0806216 5.07482C-0.430248 2.79142 1.53913 0.461708 4.5043 0.223179C5.6372 0.131009 6.77242 0.0791347 7.90902 0.0592186V0.0527344C7.93959 0.0536607 7.96969 0.0555133 8.00026 0.0559765C8.03083 0.0555133 8.06094 0.0536607 8.09151 0.0527344V0.0587555C9.22765 0.0791347 10.3629 0.130546 11.4958 0.222715C14.4614 0.461245 16.4308 2.79189 15.9194 5.07436ZM13.8834 12.9528C13.9153 13.5007 13.5578 13.9477 13.0853 13.9477H2.91472C2.44368 13.9477 2.08473 13.4998 2.11715 12.9528L2.41404 7.95848C3.49182 7.70606 4.86927 7.04651 5.36903 6.22764C5.64739 5.77142 5.67703 5.25777 5.44823 4.81267C5.39033 4.70151 5.28195 4.52782 5.15736 4.33422L5.1569 4.3333C5.15319 4.3245 5.15319 4.3245 5.15041 4.31847H10.6866C10.6838 4.32635 10.6829 4.32774 10.6783 4.33885C10.6088 4.50606 10.5852 4.63435 10.5982 4.73115C10.5824 4.75941 10.5602 4.79507 10.5481 4.81823C10.3221 5.25731 10.3517 5.77142 10.6301 6.22717C11.1299 7.04697 12.5064 7.70513 13.5842 7.95755L13.8834 12.9528ZM9.94555 7.76905C8.87935 6.70331 7.14665 6.70331 6.07999 7.76905C5.01424 8.83479 5.01424 10.5684 6.07999 11.6342C7.04476 12.5989 8.5556 12.6869 9.62365 11.9056L8.95531 11.2381C8.25963 11.6652 7.33701 11.5818 6.7349 10.9792C6.03043 10.2748 6.03043 9.1289 6.73536 8.42396C7.43983 7.71949 8.5857 7.71949 9.29064 8.42396C9.88997 9.0233 9.97473 9.93943 9.55372 10.6342L10.223 11.3035C10.9983 10.2354 10.9071 8.73104 9.94555 7.76905Z" fill="#DE4B2A"/>
</svg>
