<svg width="13" height="21" viewBox="0 0 13 21" fill="none" xmlns="http://www.w3.org/2000/svg">
<path d="M12.9311 8.1588L11.7 5.6966V4.55C11.7 4.1912 11.4088 3.9 11.05 3.9H8.0522L8.918 1.3H11.05C11.4088 1.3 11.7 1.0088 11.7 0.65C11.7 0.2912 11.4088 0 11.05 0H8.45C8.1705 0 7.9222 0.1794 7.8325 0.4446L6.682 3.9H1.95C1.5912 3.9 1.3 4.1912 1.3 4.55V5.6953L0.0689 8.1588C0.0234 8.2498 0 8.3486 0 8.45V18.85C0 19.9251 0.8749 20.8 1.95 20.8H11.05C12.1251 20.8 13 19.9251 13 18.85V8.45C13 8.3486 12.9753 8.2498 12.9311 8.1588ZM11.7 10.1569C10.5443 9.8449 8.4396 9.5199 6.2465 10.4507C4.1743 11.3321 2.1255 10.8524 1.3 10.5911V8.6034L2.3517 6.5H10.6496L11.7 8.6034V10.1569Z" fill="white"/>
</svg>
